<?xml version="1.0" encoding="UTF-8" standalone="no"?>
<!DOCTYPE svg PUBLIC "-//W3C//DTD SVG 1.1//EN" "http://www.w3.org/Graphics/SVG/1.1/DTD/svg11.dtd">
<svg width="100%" height="100%" viewBox="0 0 430 323" version="1.1" xmlns="http://www.w3.org/2000/svg" xmlns:xlink="http://www.w3.org/1999/xlink" xml:space="preserve" xmlns:serif="http://www.serif.com/" style="fill-rule:evenodd;clip-rule:evenodd;stroke-linejoin:round;stroke-miterlimit:2;">
    <g transform="matrix(1,0,0,1,-785.189,-1861.92)">
        <g id="text-not-curve" serif:id="text not curve" transform="matrix(10.7405,0,0,10.7405,-7358.4,-41138.1)">
            <g transform="matrix(2.34144,0,0,2.34144,-506.197,-5386.37)">
                <g transform="matrix(0.0397641,0,0,0.0397641,508.79,3936.27)">
                    <path d="M803.67,2165.57C799.998,2165.57 796.601,2165 793.48,2163.87C790.358,2162.75 787.932,2161.32 786.201,2159.59C785.414,2158.75 785.086,2157.79 785.217,2156.71C785.349,2155.64 785.86,2154.76 786.752,2154.08C787.801,2153.24 788.837,2152.88 789.86,2153.01C790.883,2153.15 791.762,2153.61 792.496,2154.39C793.388,2155.39 794.817,2156.32 796.784,2157.18C798.752,2158.05 800.942,2158.48 803.355,2158.48C806.397,2158.48 808.719,2157.99 810.319,2156.99C811.919,2155.99 812.745,2154.71 812.797,2153.13C812.85,2151.56 812.102,2150.2 810.555,2149.04C809.007,2147.89 806.188,2146.94 802.096,2146.21C796.798,2145.16 792.955,2143.59 790.568,2141.49C788.181,2139.39 786.988,2136.82 786.988,2133.78C786.988,2131.1 787.775,2128.88 789.348,2127.13C790.922,2125.37 792.942,2124.06 795.407,2123.19C797.873,2122.33 800.443,2121.89 803.119,2121.89C806.581,2121.89 809.65,2122.45 812.325,2123.55C815.001,2124.65 817.125,2126.17 818.699,2128.11C819.433,2128.95 819.774,2129.83 819.722,2130.75C819.669,2131.66 819.223,2132.44 818.384,2133.07C817.545,2133.64 816.548,2133.83 815.394,2133.62C814.24,2133.41 813.269,2132.94 812.483,2132.2C811.171,2130.94 809.755,2130.08 808.233,2129.61C806.712,2129.13 804.955,2128.9 802.961,2128.9C800.653,2128.9 798.699,2129.29 797.099,2130.08C795.499,2130.86 794.699,2132.02 794.699,2133.54C794.699,2134.48 794.948,2135.34 795.447,2136.1C795.945,2136.86 796.929,2137.54 798.398,2138.14C799.866,2138.75 802.017,2139.34 804.85,2139.91C808.784,2140.7 811.892,2141.7 814.174,2142.9C816.456,2144.11 818.096,2145.51 819.092,2147.11C820.089,2148.71 820.587,2150.56 820.587,2152.66C820.587,2155.07 819.945,2157.25 818.66,2159.19C817.374,2161.13 815.486,2162.68 812.994,2163.83C810.502,2164.99 807.394,2165.57 803.67,2165.57Z" style="fill-rule:nonzero;"/>
                </g>
                <g transform="matrix(0.0397641,0,0,0.0397641,508.79,3936.27)">
                    <path d="M861.426,2126.14C861.426,2124.94 861.806,2123.97 862.567,2123.23C863.328,2122.5 864.285,2122.13 865.439,2122.13C866.646,2122.13 867.616,2122.5 868.351,2123.23C869.085,2123.97 869.452,2124.94 869.452,2126.14L869.452,2161.24C869.452,2162.39 869.085,2163.35 868.351,2164.11C867.616,2164.87 866.646,2165.25 865.439,2165.25C864.285,2165.25 863.328,2164.87 862.567,2164.11C861.806,2163.35 861.426,2162.39 861.426,2161.24L861.426,2160.4C860.272,2161.55 858.947,2162.54 857.452,2163.36C854.698,2164.88 851.564,2165.64 848.049,2165.64C844.43,2165.64 841.19,2164.87 838.331,2163.32C835.472,2161.78 833.217,2159.51 831.564,2156.52C829.912,2153.53 829.086,2149.85 829.086,2145.5L829.086,2126.14C829.086,2124.99 829.466,2124.03 830.227,2123.27C830.987,2122.51 831.945,2122.13 833.099,2122.13C834.253,2122.13 835.21,2122.51 835.971,2123.27C836.731,2124.03 837.112,2124.99 837.112,2126.14L837.112,2145.5C837.112,2148.44 837.662,2150.86 838.764,2152.78C839.866,2154.69 841.361,2156.11 843.249,2157.03C845.138,2157.95 847.262,2158.41 849.623,2158.41C851.879,2158.41 853.885,2157.96 855.643,2157.07C857.4,2156.18 858.803,2154.97 859.852,2153.45C860.901,2151.93 861.426,2150.22 861.426,2148.33L861.426,2126.14Z" style="fill-rule:nonzero;"/>
                </g>
                <g transform="matrix(0.0397641,0,0,0.0397641,508.79,3936.27)">
                    <path d="M894.607,2160.99L876.927,2127.4C876.403,2126.41 876.337,2125.45 876.731,2124.53C877.124,2123.61 877.819,2122.94 878.816,2122.52C879.813,2122.1 880.757,2122.07 881.649,2122.41C882.54,2122.75 883.222,2123.41 883.695,2124.41L898.117,2153.06L910.763,2124.49C911.812,2122.29 913.465,2121.66 915.72,2122.6C918.081,2123.6 918.737,2125.25 917.687,2127.56L893.609,2181.7C892.98,2183.32 891.957,2184.14 890.54,2184.14C890.016,2184.14 889.386,2183.98 888.652,2183.66C886.344,2182.61 885.714,2180.96 886.763,2178.71L894.607,2160.99Z" style="fill-rule:nonzero;"/>
                </g>
                <g transform="matrix(0.0397641,0,0,0.0397641,508.79,3936.27)">
                    <path d="M956.008,2158.39C954.625,2160.08 952.998,2161.52 951.13,2162.69C948.087,2164.61 944.651,2165.57 940.822,2165.57C936.992,2165.57 933.556,2164.61 930.513,2162.69C927.471,2160.78 925.071,2158.18 923.314,2154.9C921.556,2151.62 920.678,2147.91 920.678,2143.77C920.678,2139.62 921.635,2135.9 923.55,2132.6C925.464,2129.29 928.061,2126.68 931.34,2124.77C934.618,2122.85 938.304,2121.89 942.395,2121.89C946.487,2121.89 950.159,2122.85 953.412,2124.77C956.664,2126.68 959.247,2129.29 961.162,2132.6C963.047,2135.85 964.004,2139.51 964.034,2143.57L964.034,2143.77L964.034,2161.32C964.034,2162.47 963.654,2163.43 962.893,2164.19C962.133,2164.95 961.175,2165.33 960.021,2165.33C958.867,2165.33 957.91,2164.95 957.149,2164.19C956.389,2163.43 956.008,2162.47 956.008,2161.32L956.008,2158.39ZM942.395,2158.48C945.071,2158.48 947.457,2157.84 949.556,2156.56C951.654,2155.27 953.307,2153.51 954.513,2151.28C955.72,2149.05 956.323,2146.55 956.323,2143.77C956.323,2140.94 955.72,2138.41 954.513,2136.18C953.307,2133.95 951.654,2132.19 949.556,2130.9C947.457,2129.62 945.071,2128.98 942.395,2128.98C939.772,2128.98 937.399,2129.62 935.274,2130.9C933.15,2132.19 931.471,2133.95 930.238,2136.18C929.005,2138.41 928.389,2140.94 928.389,2143.77C928.389,2146.55 929.005,2149.05 930.238,2151.28C931.471,2153.51 933.15,2155.27 935.274,2156.56C937.399,2157.84 939.772,2158.48 942.395,2158.48Z" style="fill-rule:nonzero;"/>
                </g>
                <g transform="matrix(0.0397641,0,0,0.0397641,508.79,3936.27)">
                    <path d="M996.847,2165.57C992.755,2165.57 989.083,2164.61 985.831,2162.69C982.578,2160.78 980.008,2158.17 978.119,2154.86C976.231,2151.56 975.26,2147.84 975.208,2143.69L975.208,2107.81C975.208,2106.6 975.588,2105.63 976.349,2104.9C977.109,2104.16 978.067,2103.8 979.221,2103.8C980.427,2103.8 981.398,2104.16 982.132,2104.9C982.867,2105.63 983.234,2106.6 983.234,2107.81L983.234,2129.05C985.07,2126.85 987.286,2125.11 989.883,2123.82C992.48,2122.54 995.326,2121.89 998.421,2121.89C1002.25,2121.89 1005.69,2122.85 1008.73,2124.77C1011.77,2126.68 1014.17,2129.28 1015.93,2132.56C1017.69,2135.84 1018.57,2139.55 1018.57,2143.69C1018.57,2147.84 1017.61,2151.56 1015.69,2154.86C1013.78,2158.17 1011.19,2160.78 1007.94,2162.69C1004.69,2164.61 1000.99,2165.57 996.847,2165.57ZM996.847,2158.48C999.522,2158.48 1001.91,2157.84 1004.01,2156.56C1006.11,2155.27 1007.77,2153.5 1009,2151.24C1010.24,2148.99 1010.85,2146.47 1010.85,2143.69C1010.85,2140.86 1010.24,2138.34 1009,2136.14C1007.77,2133.93 1006.11,2132.19 1004.01,2130.9C1001.91,2129.62 999.522,2128.98 996.847,2128.98C994.224,2128.98 991.85,2129.62 989.726,2130.9C987.601,2132.19 985.936,2133.93 984.729,2136.14C983.523,2138.34 982.919,2140.86 982.919,2143.69C982.919,2146.47 983.523,2148.99 984.729,2151.24C985.936,2153.5 987.601,2155.27 989.726,2156.56C991.85,2157.84 994.224,2158.48 996.847,2158.48Z" style="fill-rule:nonzero;"/>
                </g>
                <g transform="matrix(0.0397641,0,0,0.0397641,508.79,3936.27)">
                    <path d="M1062.87,2158.39C1061.48,2160.08 1059.86,2161.52 1057.99,2162.69C1054.94,2164.61 1051.51,2165.57 1047.68,2165.57C1043.85,2165.57 1040.41,2164.61 1037.37,2162.69C1034.33,2160.78 1031.93,2158.18 1030.17,2154.9C1028.41,2151.62 1027.54,2147.91 1027.54,2143.77C1027.54,2139.62 1028.49,2135.9 1030.41,2132.6C1032.32,2129.29 1034.92,2126.68 1038.2,2124.77C1041.48,2122.85 1045.16,2121.89 1049.25,2121.89C1053.34,2121.89 1057.02,2122.85 1060.27,2124.77C1063.52,2126.68 1066.11,2129.29 1068.02,2132.6C1069.9,2135.85 1070.86,2139.51 1070.89,2143.57L1070.89,2143.77L1070.89,2161.32C1070.89,2162.47 1070.51,2163.43 1069.75,2164.19C1068.99,2164.95 1068.03,2165.33 1066.88,2165.33C1065.72,2165.33 1064.77,2164.95 1064.01,2164.19C1063.25,2163.43 1062.87,2162.47 1062.87,2161.32L1062.87,2158.39ZM1049.25,2158.48C1051.93,2158.48 1054.32,2157.84 1056.41,2156.56C1058.51,2155.27 1060.16,2153.51 1061.37,2151.28C1062.58,2149.05 1063.18,2146.55 1063.18,2143.77C1063.18,2140.94 1062.58,2138.41 1061.37,2136.18C1060.16,2133.95 1058.51,2132.19 1056.41,2130.9C1054.32,2129.62 1051.93,2128.98 1049.25,2128.98C1046.63,2128.98 1044.26,2129.62 1042.13,2130.9C1040.01,2132.19 1038.33,2133.95 1037.1,2136.18C1035.86,2138.41 1035.25,2140.94 1035.25,2143.77C1035.25,2146.55 1035.86,2149.05 1037.1,2151.28C1038.33,2153.51 1040.01,2155.27 1042.13,2156.56C1044.26,2157.84 1046.63,2158.48 1049.25,2158.48Z" style="fill-rule:nonzero;"/>
                </g>
                <g transform="matrix(0.0397641,0,0,0.0397641,508.79,3936.27)">
                    <path d="M1089.78,2149.37L1089.78,2161.39C1089.78,2162.55 1089.42,2163.48 1088.71,2164.19C1088.01,2164.9 1087.08,2165.25 1085.92,2165.25C1084.77,2165.25 1083.84,2164.9 1083.13,2164.19C1082.42,2163.48 1082.07,2162.55 1082.07,2161.39L1082.07,2107.65C1082.07,2106.5 1082.42,2105.57 1083.13,2104.86C1083.84,2104.15 1084.77,2103.8 1085.92,2103.8C1087.08,2103.8 1088.01,2104.15 1088.71,2104.86C1089.42,2105.57 1089.78,2106.5 1089.78,2107.65L1089.78,2139.67L1108.9,2122.6C1109.68,2121.87 1110.56,2121.53 1111.53,2121.58C1112.5,2121.63 1113.33,2122.05 1114.01,2122.84C1114.75,2123.62 1115.09,2124.49 1115.04,2125.43C1114.98,2126.38 1114.56,2127.22 1113.78,2127.95L1099.33,2140.84L1114.56,2159.59C1115.25,2160.43 1115.55,2161.33 1115.47,2162.3C1115.39,2163.27 1114.9,2164.12 1114.01,2164.86C1113.17,2165.54 1112.24,2165.84 1111.22,2165.76C1110.2,2165.68 1109.34,2165.22 1108.66,2164.39L1093.69,2145.88L1089.78,2149.37Z" style="fill-rule:nonzero;"/>
                </g>
                <g transform="matrix(0.0397641,0,0,0.0397641,508.79,3936.27)">
                    <path d="M1155.24,2158.39C1153.86,2160.08 1152.24,2161.52 1150.37,2162.69C1147.32,2164.61 1143.89,2165.57 1140.06,2165.57C1136.23,2165.57 1132.79,2164.61 1129.75,2162.69C1126.71,2160.78 1124.31,2158.18 1122.55,2154.9C1120.79,2151.62 1119.91,2147.91 1119.91,2143.77C1119.91,2139.62 1120.87,2135.9 1122.79,2132.6C1124.7,2129.29 1127.3,2126.68 1130.58,2124.77C1133.86,2122.85 1137.54,2121.89 1141.63,2121.89C1145.72,2121.89 1149.39,2122.85 1152.65,2124.77C1155.9,2126.68 1158.48,2129.29 1160.4,2132.6C1162.28,2135.85 1163.24,2139.51 1163.27,2143.57L1163.27,2143.77L1163.27,2161.32C1163.27,2162.47 1162.89,2163.43 1162.13,2164.19C1161.37,2164.95 1160.41,2165.33 1159.26,2165.33C1158.1,2165.33 1157.15,2164.95 1156.38,2164.19C1155.62,2163.43 1155.24,2162.47 1155.24,2161.32L1155.24,2158.39ZM1141.63,2158.48C1144.31,2158.48 1146.69,2157.84 1148.79,2156.56C1150.89,2155.27 1152.54,2153.51 1153.75,2151.28C1154.96,2149.05 1155.56,2146.55 1155.56,2143.77C1155.56,2140.94 1154.96,2138.41 1153.75,2136.18C1152.54,2133.95 1150.89,2132.19 1148.79,2130.9C1146.69,2129.62 1144.31,2128.98 1141.63,2128.98C1139.01,2128.98 1136.63,2129.62 1134.51,2130.9C1132.39,2132.19 1130.71,2133.95 1129.47,2136.18C1128.24,2138.41 1127.62,2140.94 1127.62,2143.77C1127.62,2146.55 1128.24,2149.05 1129.47,2151.28C1130.71,2153.51 1132.39,2155.27 1134.51,2156.56C1136.63,2157.84 1139.01,2158.48 1141.63,2158.48Z" style="fill-rule:nonzero;"/>
                </g>
                <g transform="matrix(0.0397641,0,0,0.0397641,508.79,3936.27)">
                    <path d="M1182.47,2127.06C1183.63,2125.91 1184.97,2124.93 1186.48,2124.1C1189.26,2122.58 1192.38,2121.82 1195.85,2121.82C1199.47,2121.82 1202.71,2122.59 1205.57,2124.14C1208.42,2125.68 1210.68,2127.95 1212.33,2130.94C1213.98,2133.93 1214.81,2137.61 1214.81,2141.96L1214.81,2161.32C1214.81,2162.47 1214.43,2163.43 1213.67,2164.19C1212.91,2164.95 1211.95,2165.33 1210.8,2165.33C1209.64,2165.33 1208.69,2164.95 1207.93,2164.19C1207.16,2163.43 1206.79,2162.47 1206.79,2161.32L1206.79,2141.96C1206.79,2138.97 1206.23,2136.53 1205.13,2134.64C1204.03,2132.75 1202.55,2131.35 1200.69,2130.43C1198.82,2129.51 1196.69,2129.05 1194.27,2129.05C1192.07,2129.05 1190.08,2129.5 1188.29,2130.39C1186.51,2131.28 1185.09,2132.48 1184.04,2133.97C1183,2135.47 1182.47,2137.19 1182.47,2139.13L1182.47,2161.32C1182.47,2162.47 1182.1,2163.43 1181.37,2164.19C1180.63,2164.95 1179.66,2165.33 1178.46,2165.33C1177.3,2165.33 1176.35,2164.95 1175.59,2164.19C1174.82,2163.43 1174.44,2162.47 1174.44,2161.32L1174.44,2126.22C1174.44,2125.01 1174.82,2124.05 1175.59,2123.31C1176.35,2122.58 1177.3,2122.21 1178.46,2122.21C1179.66,2122.21 1180.63,2122.58 1181.37,2123.31C1182.1,2124.05 1182.47,2125.01 1182.47,2126.22L1182.47,2127.06Z" style="fill-rule:nonzero;"/>
                </g>
            </g>
            <g transform="matrix(2.27733,0,0,2.27733,-794.33,-5122.27)">
                <g transform="matrix(0.212338,0,0,0.212338,286.446,3275.48)">
                    <path d="M1888.43,3461.14L1896.28,3474.9C1897.9,3477.71 1897.85,3481.03 1896.43,3483.7L1896.28,3483.96C1894.6,3486.86 1891.56,3488.49 1888.43,3488.49C1885.31,3488.49 1882.27,3486.86 1880.59,3483.96L1880.44,3483.7C1879.02,3481.03 1878.96,3477.71 1880.59,3474.9L1888.43,3461.14Z" style="fill:rgb(15,82,186);"/>
                </g>
                <g transform="matrix(0.5,0,0,0.5,301.543,2004.21)">
                    <path d="M781.031,4007.97C779.946,4006.12 777.565,4005.49 775.704,4006.57C773.836,4007.64 773.195,4010.04 774.273,4011.91L780.137,4022.06C781.215,4023.93 783.608,4024.57 785.476,4023.49C787.344,4022.41 787.985,4020.02 786.907,4018.15L781.031,4007.97Z" style="fill:rgb(203,203,203);"/>
                </g>
            </g>
        </g>
    </g>
</svg>
